<svg width="40" height="34" viewBox="0 0 40 34" fill="none" xmlns="http://www.w3.org/2000/svg">
<path fill-rule="evenodd" clip-rule="evenodd" d="M0.800003 4.99995C0.800003 3.72691 1.30572 2.50601 2.20589 1.60584C3.10607 0.705664 4.32696 0.199951 5.6 0.199951H34.4C35.673 0.199951 36.8939 0.705664 37.7941 1.60584C38.6943 2.50601 39.2 3.72691 39.2 4.99995V9.79995C39.2 11.073 38.6943 12.2939 37.7941 13.1941C36.8939 14.0942 35.673 14.6 34.4 14.6H5.6C4.32696 14.6 3.10607 14.0942 2.20589 13.1941C1.30572 12.2939 0.800003 11.073 0.800003 9.79995V4.99995ZM34.4 7.39995C34.4 8.03647 34.1471 8.64692 33.6971 9.09701C33.247 9.54709 32.6365 9.79995 32 9.79995C31.3635 9.79995 30.753 9.54709 30.3029 9.09701C29.8529 8.64692 29.6 8.03647 29.6 7.39995C29.6 6.76343 29.8529 6.15298 30.3029 5.7029C30.753 5.25281 31.3635 4.99995 32 4.99995C32.6365 4.99995 33.247 5.25281 33.6971 5.7029C34.1471 6.15298 34.4 6.76343 34.4 7.39995ZM0.800003 24.1999C0.800003 22.9269 1.30572 21.706 2.20589 20.8058C3.10607 19.9057 4.32696 19.4 5.6 19.4H34.4C35.673 19.4 36.8939 19.9057 37.7941 20.8058C38.6943 21.706 39.2 22.9269 39.2 24.1999V29C39.2 30.273 38.6943 31.4939 37.7941 32.3941C36.8939 33.2942 35.673 33.7999 34.4 33.7999H5.6C4.32696 33.7999 3.10607 33.2942 2.20589 32.3941C1.30572 31.4939 0.800003 30.273 0.800003 29V24.1999ZM34.4 26.5999C34.4 27.2365 34.1471 27.8469 33.6971 28.297C33.247 28.7471 32.6365 29 32 29C31.3635 29 30.753 28.7471 30.3029 28.297C29.8529 27.8469 29.6 27.2365 29.6 26.5999C29.6 25.9634 29.8529 25.353 30.3029 24.9029C30.753 24.4528 31.3635 24.1999 32 24.1999C32.6365 24.1999 33.247 24.4528 33.6971 24.9029C34.1471 25.353 34.4 25.9634 34.4 26.5999Z" fill="#7E3AF2"/>
</svg>
