<svg width="40" height="42" viewBox="0 0 40 42" fill="none" xmlns="http://www.w3.org/2000/svg">
<path d="M3.2 0.400024C2.56348 0.400024 1.95303 0.652881 1.50295 1.10297C1.05286 1.55306 0.800003 2.1635 0.800003 2.80002C0.800003 3.43654 1.05286 4.04699 1.50295 4.49708C1.95303 4.94717 2.56348 5.20002 3.2 5.20002H6.128L6.86 8.13282C6.86727 8.16659 6.87528 8.2002 6.884 8.23362L10.1432 21.2656L8 23.4064C4.976 26.4304 7.1168 31.6 11.3936 31.6H32C32.6365 31.6 33.247 31.3472 33.6971 30.8971C34.1471 30.447 34.4 29.8365 34.4 29.2C34.4 28.5635 34.1471 27.9531 33.6971 27.503C33.247 27.0529 32.6365 26.8 32 26.8H11.3936L13.7936 24.4H29.6C30.0456 24.3998 30.4823 24.2755 30.8613 24.0411C31.2402 23.8067 31.5464 23.4714 31.7456 23.0728L38.9456 8.67282C39.1284 8.30701 39.2147 7.90056 39.1963 7.49204C39.1779 7.08351 39.0554 6.68647 38.8405 6.33857C38.6255 5.99067 38.3253 5.70347 37.9682 5.50421C37.611 5.30495 37.2089 5.20024 36.8 5.20002H11.072L10.328 2.21682C10.198 1.69783 9.89829 1.23717 9.4765 0.907997C9.05472 0.57883 8.53503 0.400038 8 0.400024H3.2ZM34.4 37.6C34.4 38.5548 34.0207 39.4705 33.3456 40.1456C32.6705 40.8207 31.7548 41.2 30.8 41.2C29.8452 41.2 28.9296 40.8207 28.2544 40.1456C27.5793 39.4705 27.2 38.5548 27.2 37.6C27.2 36.6452 27.5793 35.7296 28.2544 35.0544C28.9296 34.3793 29.8452 34 30.8 34C31.7548 34 32.6705 34.3793 33.3456 35.0544C34.0207 35.7296 34.4 36.6452 34.4 37.6ZM11.6 41.2C12.5548 41.2 13.4705 40.8207 14.1456 40.1456C14.8207 39.4705 15.2 38.5548 15.2 37.6C15.2 36.6452 14.8207 35.7296 14.1456 35.0544C13.4705 34.3793 12.5548 34 11.6 34C10.6452 34 9.72955 34.3793 9.05442 35.0544C8.37929 35.7296 8 36.6452 8 37.6C8 38.5548 8.37929 39.4705 9.05442 40.1456C9.72955 40.8207 10.6452 41.2 11.6 41.2Z" fill="#7E3AF2"/>
</svg>
