<svg width="44" height="34" viewBox="0 0 44 34" fill="none" xmlns="http://www.w3.org/2000/svg">
<path d="M19.6 7.39995C19.6 9.30951 18.8414 11.1409 17.4912 12.4911C16.1409 13.8414 14.3096 14.6 12.4 14.6C10.4904 14.6 8.65909 13.8414 7.30883 12.4911C5.95856 11.1409 5.19999 9.30951 5.19999 7.39995C5.19999 5.49039 5.95856 3.65904 7.30883 2.30878C8.65909 0.958521 10.4904 0.199951 12.4 0.199951C14.3096 0.199951 16.1409 0.958521 17.4912 2.30878C18.8414 3.65904 19.6 5.49039 19.6 7.39995V7.39995ZM38.8 7.39995C38.8 8.34547 38.6138 9.28173 38.2519 10.1553C37.8901 11.0288 37.3597 11.8225 36.6912 12.4911C36.0226 13.1597 35.2289 13.69 34.3553 14.0519C33.4818 14.4137 32.5455 14.6 31.6 14.6C30.6545 14.6 29.7182 14.4137 28.8447 14.0519C27.9711 13.69 27.1774 13.1597 26.5088 12.4911C25.8402 11.8225 25.3099 11.0288 24.9481 10.1553C24.5862 9.28173 24.4 8.34547 24.4 7.39995C24.4 5.49039 25.1586 3.65904 26.5088 2.30878C27.8591 0.958521 29.6904 0.199951 31.6 0.199951C33.5096 0.199951 35.3409 0.958521 36.6912 2.30878C38.0414 3.65904 38.8 5.49039 38.8 7.39995V7.39995ZM29.032 33.7999C29.1424 33.0151 29.2 32.216 29.2 31.4C29.2055 27.6292 27.937 23.9672 25.6 21.0079C27.4242 19.9547 29.4935 19.4003 31.5999 19.4003C33.7063 19.4002 35.7756 19.9547 37.5999 21.0079C39.4241 22.0611 40.9389 23.5759 41.9922 25.4001C43.0454 27.2242 43.5999 29.2935 43.6 31.4V33.7999H29.032ZM12.4 19.4C15.5826 19.4 18.6348 20.6642 20.8853 22.9147C23.1357 25.1651 24.4 28.2174 24.4 31.4V33.7999H0.399994V31.4C0.399994 28.2174 1.66428 25.1651 3.91471 22.9147C6.16515 20.6642 9.2174 19.4 12.4 19.4V19.4Z" fill="#7E3AF2"/>
</svg>
